<svg xmlns="http://www.w3.org/2000/svg" viewBox="0 0 128 128" role="img" aria-label="SwapTome logo">
  <defs>
    <linearGradient id="g" x1="0" x2="1" y1="0" y2="1">
      <stop offset="0%" stop-color="#14b8a6"/>
      <stop offset="100%" stop-color="#1d4ed8"/>
    </linearGradient>
  </defs>
  <rect width="128" height="128" rx="20" fill="none"/>
  <path d="M18 34h28c12 0 22 10 22 22v38H40c-12 0-22-10-22-22V34z" fill="none" stroke="url(#g)" stroke-width="8" stroke-linejoin="round"/>
  <path d="M110 34H82c-12 0-22 10-22 22v38h28c12 0 22-10 22-22V34z" fill="none" stroke="url(#g)" stroke-width="8" stroke-linejoin="round"/>
  <path d="M34 86c13-10 22-22 30-40" fill="none" stroke="url(#g)" stroke-width="8" stroke-linecap="round"/>
  <path d="M94 42c-13 10-22 22-30 40" fill="none" stroke="url(#g)" stroke-width="8" stroke-linecap="round"/>
  <path d="M56 46l10-10 10 10" fill="none" stroke="url(#g)" stroke-width="6" stroke-linecap="round" stroke-linejoin="round"/>
  <path d="M72 82l-10 10-10-10" fill="none" stroke="url(#g)" stroke-width="6" stroke-linecap="round" stroke-linejoin="round"/>
</svg>
